<svg width="49mm" height="49mm" version="1.1" viewBox="0 0 49 49" xmlns="http://www.w3.org/2000/svg"><path d="M2,2H3V3H2zM3,2H4V3H3zM4,2H5V3H4zM5,2H6V3H5zM6,2H7V3H6zM7,2H8V3H7zM8,2H9V3H8zM12,2H13V3H12zM14,2H15V3H14zM15,2H16V3H15zM18,2H19V3H18zM21,2H22V3H21zM22,2H23V3H22zM28,2H29V3H28zM29,2H30V3H29zM31,2H32V3H31zM32,2H33V3H32zM33,2H34V3H33zM34,2H35V3H34zM38,2H39V3H38zM40,2H41V3H40zM41,2H42V3H41zM42,2H43V3H42zM43,2H44V3H43zM44,2H45V3H44zM45,2H46V3H45zM46,2H47V3H46zM2,3H3V4H2zM8,3H9V4H8zM10,3H11V4H10zM11,3H12V4H11zM12,3H13V4H12zM15,3H16V4H15zM17,3H18V4H17zM18,3H19V4H18zM19,3H20V4H19zM20,3H21V4H20zM21,3H22V4H21zM22,3H23V4H22zM23,3H24V4H23zM24,3H25V4H24zM25,3H26V4H25zM27,3H28V4H27zM28,3H29V4H28zM29,3H30V4H29zM32,3H33V4H32zM37,3H38V4H37zM40,3H41V4H40zM46,3H47V4H46zM2,4H3V5H2zM4,4H5V5H4zM5,4H6V5H5zM6,4H7V5H6zM8,4H9V5H8zM10,4H11V5H10zM11,4H12V5H11zM13,4H14V5H13zM17,4H18V5H17zM18,4H19V5H18zM19,4H20V5H19zM23,4H24V5H23zM24,4H25V5H24zM25,4H26V5H25zM26,4H27V5H26zM29,4H30V5H29zM31,4H32V5H31zM34,4H35V5H34zM37,4H38V5H37zM40,4H41V5H40zM42,4H43V5H42zM43,4H44V5H43zM44,4H45V5H44zM46,4H47V5H46zM2,5H3V6H2zM4,5H5V6H4zM5,5H6V6H5zM6,5H7V6H6zM8,5H9V6H8zM11,5H12V6H11zM12,5H13V6H12zM14,5H15V6H14zM21,5H22V6H21zM24,5H25V6H24zM26,5H27V6H26zM27,5H28V6H27zM29,5H30V6H29zM31,5H32V6H31zM37,5H38V6H37zM38,5H39V6H38zM40,5H41V6H40zM42,5H43V6H42zM43,5H44V6H43zM44,5H45V6H44zM46,5H47V6H46zM2,6H3V7H2zM4,6H5V7H4zM5,6H6V7H5zM6,6H7V7H6zM8,6H9V7H8zM10,6H11V7H10zM11,6H12V7H11zM15,6H16V7H15zM16,6H17V7H16zM17,6H18V7H17zM20,6H21V7H20zM21,6H22V7H21zM22,6H23V7H22zM23,6H24V7H23zM24,6H25V7H24zM25,6H26V7H25zM26,6H27V7H26zM27,6H28V7H27zM28,6H29V7H28zM29,6H30V7H29zM31,6H32V7H31zM32,6H33V7H32zM36,6H37V7H36zM37,6H38V7H37zM38,6H39V7H38zM40,6H41V7H40zM42,6H43V7H42zM43,6H44V7H43zM44,6H45V7H44zM46,6H47V7H46zM2,7H3V8H2zM8,7H9V8H8zM10,7H11V8H10zM11,7H12V8H11zM13,7H14V8H13zM15,7H16V8H15zM17,7H18V8H17zM18,7H19V8H18zM20,7H21V8H20zM21,7H22V8H21zM22,7H23V8H22zM26,7H27V8H26zM27,7H28V8H27zM32,7H33V8H32zM34,7H35V8H34zM35,7H36V8H35zM40,7H41V8H40zM46,7H47V8H46zM2,8H3V9H2zM3,8H4V9H3zM4,8H5V9H4zM5,8H6V9H5zM6,8H7V9H6zM7,8H8V9H7zM8,8H9V9H8zM10,8H11V9H10zM12,8H13V9H12zM14,8H15V9H14zM16,8H17V9H16zM18,8H19V9H18zM20,8H21V9H20zM22,8H23V9H22zM24,8H25V9H24zM26,8H27V9H26zM28,8H29V9H28zM30,8H31V9H30zM32,8H33V9H32zM34,8H35V9H34zM36,8H37V9H36zM38,8H39V9H38zM40,8H41V9H40zM41,8H42V9H41zM42,8H43V9H42zM43,8H44V9H43zM44,8H45V9H44zM45,8H46V9H45zM46,8H47V9H46zM10,9H11V10H10zM11,9H12V10H11zM14,9H15V10H14zM16,9H17V10H16zM17,9H18V10H17zM21,9H22V10H21zM22,9H23V10H22zM26,9H27V10H26zM28,9H29V10H28zM31,9H32V10H31zM32,9H33V10H32zM34,9H35V10H34zM38,9H39V10H38zM2,10H3V11H2zM3,10H4V11H3zM5,10H6V11H5zM8,10H9V11H8zM9,10H10V11H9zM15,10H16V11H15zM18,10H19V11H18zM20,10H21V11H20zM22,10H23V11H22zM23,10H24V11H23zM24,10H25V11H24zM25,10H26V11H25zM26,10H27V11H26zM27,10H28V11H27zM28,10H29V11H28zM30,10H31V11H30zM31,10H32V11H31zM33,10H34V11H33zM37,10H38V11H37zM38,10H39V11H38zM40,10H41V11H40zM41,10H42V11H41zM42,10H43V11H42zM44,10H45V11H44zM45,10H46V11H45zM2,11H3V12H2zM6,11H7V12H6zM9,11H10V12H9zM10,11H11V12H10zM13,11H14V12H13zM20,11H21V12H20zM21,11H22V12H21zM22,11H23V12H22zM23,11H24V12H23zM25,11H26V12H25zM26,11H27V12H26zM27,11H28V12H27zM30,11H31V12H30zM33,11H34V12H33zM35,11H36V12H35zM39,11H40V12H39zM41,11H42V12H41zM43,11H44V12H43zM45,11H46V12H45zM5,12H6V13H5zM7,12H8V13H7zM8,12H9V13H8zM9,12H10V13H9zM10,12H11V13H10zM12,12H13V13H12zM13,12H14V13H13zM15,12H16V13H15zM18,12H19V13H18zM19,12H20V13H19zM25,12H26V13H25zM26,12H27V13H26zM27,12H28V13H27zM28,12H29V13H28zM30,12H31V13H30zM33,12H34V13H33zM35,12H36V13H35zM36,12H37V13H36zM37,12H38V13H37zM39,12H40V13H39zM40,12H41V13H40zM41,12H42V13H41zM46,12H47V13H46zM2,13H3V14H2zM6,13H7V14H6zM9,13H10V14H9zM11,13H12V14H11zM13,13H14V14H13zM14,13H15V14H14zM16,13H17V14H16zM18,13H19V14H18zM19,13H20V14H19zM20,13H21V14H20zM22,13H23V14H22zM26,13H27V14H26zM30,13H31V14H30zM33,13H34V14H33zM35,13H36V14H35zM37,13H38V14H37zM38,13H39V14H38zM39,13H40V14H39zM40,13H41V14H40zM41,13H42V14H41zM42,13H43V14H42zM8,14H9V15H8zM9,14H10V15H9zM13,14H14V15H13zM15,14H16V15H15zM16,14H17V15H16zM18,14H19V15H18zM19,14H20V15H19zM20,14H21V15H20zM21,14H22V15H21zM24,14H25V15H24zM30,14H31V15H30zM31,14H32V15H31zM32,14H33V15H32zM33,14H34V15H33zM34,14H35V15H34zM35,14H36V15H35zM36,14H37V15H36zM38,14H39V15H38zM39,14H40V15H39zM41,14H42V15H41zM42,14H43V15H42zM45,14H46V15H45zM46,14H47V15H46zM4,15H5V16H4zM6,15H7V16H6zM7,15H8V16H7zM11,15H12V16H11zM12,15H13V16H12zM14,15H15V16H14zM15,15H16V16H15zM17,15H18V16H17zM18,15H19V16H18zM21,15H22V16H21zM22,15H23V16H22zM24,15H25V16H24zM25,15H26V16H25zM26,15H27V16H26zM27,15H28V16H27zM29,15H30V16H29zM30,15H31V16H30zM34,15H35V16H34zM36,15H37V16H36zM39,15H40V16H39zM41,15H42V16H41zM43,15H44V16H43zM44,15H45V16H44zM45,15H46V16H45zM46,15H47V16H46zM4,16H5V17H4zM8,16H9V17H8zM11,16H12V17H11zM13,16H14V17H13zM14,16H15V17H14zM15,16H16V17H15zM18,16H19V17H18zM19,16H20V17H19zM22,16H23V17H22zM24,16H25V17H24zM26,16H27V17H26zM28,16H29V17H28zM33,16H34V17H33zM34,16H35V17H34zM36,16H37V17H36zM38,16H39V17H38zM40,16H41V17H40zM41,16H42V17H41zM44,16H45V17H44zM45,16H46V17H45zM2,17H3V18H2zM3,17H4V18H3zM4,17H5V18H4zM5,17H6V18H5zM9,17H10V18H9zM12,17H13V18H12zM15,17H16V18H15zM16,17H17V18H16zM17,17H18V18H17zM19,17H20V18H19zM27,17H28V18H27zM28,17H29V18H28zM30,17H31V18H30zM31,17H32V18H31zM33,17H34V18H33zM34,17H35V18H34zM35,17H36V18H35zM36,17H37V18H36zM39,17H40V18H39zM40,17H41V18H40zM41,17H42V18H41zM4,18H5V19H4zM7,18H8V19H7zM8,18H9V19H8zM9,18H10V19H9zM10,18H11V19H10zM13,18H14V19H13zM16,18H17V19H16zM20,18H21V19H20zM21,18H22V19H21zM22,18H23V19H22zM23,18H24V19H23zM24,18H25V19H24zM27,18H28V19H27zM31,18H32V19H31zM32,18H33V19H32zM34,18H35V19H34zM36,18H37V19H36zM38,18H39V19H38zM39,18H40V19H39zM41,18H42V19H41zM44,18H45V19H44zM46,18H47V19H46zM3,19H4V20H3zM4,19H5V20H4zM5,19H6V20H5zM7,19H8V20H7zM10,19H11V20H10zM13,19H14V20H13zM14,19H15V20H14zM15,19H16V20H15zM16,19H17V20H16zM19,19H20V20H19zM20,19H21V20H20zM25,19H26V20H25zM26,19H27V20H26zM28,19H29V20H28zM29,19H30V20H29zM31,19H32V20H31zM35,19H36V20H35zM37,19H38V20H37zM40,19H41V20H40zM41,19H42V20H41zM42,19H43V20H42zM45,19H46V20H45zM46,19H47V20H46zM2,20H3V21H2zM3,20H4V21H3zM5,20H6V21H5zM6,20H7V21H6zM8,20H9V21H8zM10,20H11V21H10zM15,20H16V21H15zM16,20H17V21H16zM17,20H18V21H17zM18,20H19V21H18zM20,20H21V21H20zM23,20H24V21H23zM26,20H27V21H26zM28,20H29V21H28zM29,20H30V21H29zM33,20H34V21H33zM34,20H35V21H34zM35,20H36V21H35zM37,20H38V21H37zM38,20H39V21H38zM39,20H40V21H39zM40,20H41V21H40zM42,20H43V21H42zM44,20H45V21H44zM45,20H46V21H45zM46,20H47V21H46zM2,21H3V22H2zM3,21H4V22H3zM6,21H7V22H6zM7,21H8V22H7zM9,21H10V22H9zM10,21H11V22H10zM11,21H12V22H11zM14,21H15V22H14zM18,21H19V22H18zM19,21H20V22H19zM20,21H21V22H20zM24,21H25V22H24zM25,21H26V22H25zM28,21H29V22H28zM31,21H32V22H31zM32,21H33V22H32zM34,21H35V22H34zM35,21H36V22H35zM37,21H38V22H37zM38,21H39V22H38zM40,21H41V22H40zM41,21H42V22H41zM43,21H44V22H43zM45,21H46V22H45zM2,22H3V23H2zM5,22H6V23H5zM6,22H7V23H6zM7,22H8V23H7zM8,22H9V23H8zM9,22H10V23H9zM10,22H11V23H10zM11,22H12V23H11zM13,22H14V23H13zM14,22H15V23H14zM15,22H16V23H15zM17,22H18V23H17zM20,22H21V23H20zM21,22H22V23H21zM22,22H23V23H22zM23,22H24V23H23zM24,22H25V23H24zM25,22H26V23H25zM26,22H27V23H26zM27,22H28V23H27zM29,22H30V23H29zM30,22H31V23H30zM31,22H32V23H31zM35,22H36V23H35zM36,22H37V23H36zM37,22H38V23H37zM38,22H39V23H38zM39,22H40V23H39zM40,22H41V23H40zM41,22H42V23H41zM42,22H43V23H42zM43,22H44V23H43zM45,22H46V23H45zM5,23H6V24H5zM6,23H7V24H6zM10,23H11V24H10zM12,23H13V24H12zM14,23H15V24H14zM15,23H16V24H15zM17,23H18V24H17zM19,23H20V24H19zM22,23H23V24H22zM26,23H27V24H26zM33,23H34V24H33zM37,23H38V24H37zM38,23H39V24H38zM42,23H43V24H42zM44,23H45V24H44zM45,23H46V24H45zM46,23H47V24H46zM3,24H4V25H3zM4,24H5V25H4zM6,24H7V25H6zM8,24H9V25H8zM10,24H11V25H10zM14,24H15V25H14zM15,24H16V25H15zM16,24H17V25H16zM17,24H18V25H17zM19,24H20V25H19zM20,24H21V25H20zM22,24H23V25H22zM24,24H25V25H24zM26,24H27V25H26zM27,24H28V25H27zM30,24H31V25H30zM37,24H38V25H37zM38,24H39V25H38zM40,24H41V25H40zM42,24H43V25H42zM46,24H47V25H46zM2,25H3V26H2zM6,25H7V26H6zM10,25H11V26H10zM11,25H12V26H11zM12,25H13V26H12zM13,25H14V26H13zM19,25H20V26H19zM22,25H23V26H22zM26,25H27V26H26zM28,25H29V26H28zM29,25H30V26H29zM30,25H31V26H30zM31,25H32V26H31zM32,25H33V26H32zM33,25H34V26H33zM34,25H35V26H34zM35,25H36V26H35zM38,25H39V26H38zM42,25H43V26H42zM45,25H46V26H45zM46,25H47V26H46zM4,26H5V27H4zM5,26H6V27H5zM6,26H7V27H6zM7,26H8V27H7zM8,26H9V27H8zM9,26H10V27H9zM10,26H11V27H10zM12,26H13V27H12zM13,26H14V27H13zM14,26H15V27H14zM15,26H16V27H15zM16,26H17V27H16zM18,26H19V27H18zM20,26H21V27H20zM22,26H23V27H22zM23,26H24V27H23zM24,26H25V27H24zM25,26H26V27H25zM26,26H27V27H26zM29,26H30V27H29zM30,26H31V27H30zM32,26H33V27H32zM33,26H34V27H33zM34,26H35V27H34zM35,26H36V27H35zM38,26H39V27H38zM39,26H40V27H39zM40,26H41V27H40zM41,26H42V27H41zM42,26H43V27H42zM43,26H44V27H43zM45,26H46V27H45zM46,26H47V27H46zM5,27H6V28H5zM7,27H8V28H7zM10,27H11V28H10zM11,27H12V28H11zM13,27H14V28H13zM18,27H19V28H18zM20,27H21V28H20zM21,27H22V28H21zM22,27H23V28H22zM23,27H24V28H23zM26,27H27V28H26zM27,27H28V28H27zM30,27H31V28H30zM34,27H35V28H34zM35,27H36V28H35zM36,27H37V28H36zM39,27H40V28H39zM42,27H43V28H42zM2,28H3V29H2zM4,28H5V29H4zM6,28H7V29H6zM8,28H9V29H8zM9,28H10V29H9zM12,28H13V29H12zM14,28H15V29H14zM15,28H16V29H15zM16,28H17V29H16zM20,28H21V29H20zM22,28H23V29H22zM23,28H24V29H23zM24,28H25V29H24zM25,28H26V29H25zM31,28H32V29H31zM34,28H35V29H34zM38,28H39V29H38zM39,28H40V29H39zM41,28H42V29H41zM42,28H43V29H42zM43,28H44V29H43zM45,28H46V29H45zM2,29H3V30H2zM3,29H4V30H3zM9,29H10V30H9zM11,29H12V30H11zM13,29H14V30H13zM15,29H16V30H15zM17,29H18V30H17zM18,29H19V30H18zM20,29H21V30H20zM21,29H22V30H21zM23,29H24V30H23zM28,29H29V30H28zM29,29H30V30H29zM30,29H31V30H30zM31,29H32V30H31zM33,29H34V30H33zM34,29H35V30H34zM36,29H37V30H36zM37,29H38V30H37zM38,29H39V30H38zM40,29H41V30H40zM41,29H42V30H41zM42,29H43V30H42zM43,29H44V30H43zM45,29H46V30H45zM46,29H47V30H46zM2,30H3V31H2zM5,30H6V31H5zM8,30H9V31H8zM10,30H11V31H10zM12,30H13V31H12zM13,30H14V31H13zM16,30H17V31H16zM17,30H18V31H17zM18,30H19V31H18zM20,30H21V31H20zM21,30H22V31H21zM22,30H23V31H22zM23,30H24V31H23zM26,30H27V31H26zM29,30H30V31H29zM31,30H32V31H31zM32,30H33V31H32zM34,30H35V31H34zM40,30H41V31H40zM41,30H42V31H41zM45,30H46V31H45zM46,30H47V31H46zM4,31H5V32H4zM5,31H6V32H5zM7,31H8V32H7zM12,31H13V32H12zM13,31H14V32H13zM15,31H16V32H15zM16,31H17V32H16zM17,31H18V32H17zM19,31H20V32H19zM20,31H21V32H20zM22,31H23V32H22zM24,31H25V32H24zM25,31H26V32H25zM27,31H28V32H27zM28,31H29V32H28zM30,31H31V32H30zM31,31H32V32H31zM34,31H35V32H34zM35,31H36V32H35zM37,31H38V32H37zM39,31H40V32H39zM44,31H45V32H44zM45,31H46V32H45zM3,32H4V33H3zM4,32H5V33H4zM6,32H7V33H6zM7,32H8V33H7zM8,32H9V33H8zM12,32H13V33H12zM13,32H14V33H13zM16,32H17V33H16zM18,32H19V33H18zM20,32H21V33H20zM22,32H23V33H22zM26,32H27V33H26zM28,32H29V33H28zM30,32H31V33H30zM35,32H36V33H35zM38,32H39V33H38zM39,32H40V33H39zM40,32H41V33H40zM41,32H42V33H41zM42,32H43V33H42zM45,32H46V33H45zM46,32H47V33H46zM2,33H3V34H2zM3,33H4V34H3zM4,33H5V34H4zM6,33H7V34H6zM7,33H8V34H7zM11,33H12V34H11zM12,33H13V34H12zM14,33H15V34H14zM15,33H16V34H15zM17,33H18V34H17zM19,33H20V34H19zM21,33H22V34H21zM23,33H24V34H23zM24,33H25V34H24zM27,33H28V34H27zM28,33H29V34H28zM29,33H30V34H29zM31,33H32V34H31zM32,33H33V34H32zM33,33H34V34H33zM34,33H35V34H34zM37,33H38V34H37zM41,33H42V34H41zM42,33H43V34H42zM46,33H47V34H46zM2,34H3V35H2zM7,34H8V35H7zM8,34H9V35H8zM11,34H12V35H11zM13,34H14V35H13zM14,34H15V35H14zM15,34H16V35H15zM18,34H19V35H18zM19,34H20V35H19zM20,34H21V35H20zM21,34H22V35H21zM23,34H24V35H23zM24,34H25V35H24zM25,34H26V35H25zM28,34H29V35H28zM29,34H30V35H29zM30,34H31V35H30zM32,34H33V35H32zM37,34H38V35H37zM38,34H39V35H38zM44,34H45V35H44zM45,34H46V35H45zM46,34H47V35H46zM2,35H3V36H2zM3,35H4V36H3zM4,35H5V36H4zM5,35H6V36H5zM6,35H7V36H6zM9,35H10V36H9zM11,35H12V36H11zM12,35H13V36H12zM14,35H15V36H14zM17,35H18V36H17zM19,35H20V36H19zM20,35H21V36H20zM22,35H23V36H22zM23,35H24V36H23zM24,35H25V36H24zM25,35H26V36H25zM27,35H28V36H27zM29,35H30V36H29zM31,35H32V36H31zM33,35H34V36H33zM34,35H35V36H34zM35,35H36V36H35zM37,35H38V36H37zM38,35H39V36H38zM39,35H40V36H39zM43,35H44V36H43zM45,35H46V36H45zM6,36H7V37H6zM8,36H9V37H8zM9,36H10V37H9zM10,36H11V37H10zM12,36H13V37H12zM16,36H17V37H16zM17,36H18V37H17zM18,36H19V37H18zM21,36H22V37H21zM22,36H23V37H22zM29,36H30V37H29zM31,36H32V37H31zM35,36H36V37H35zM36,36H37V37H36zM37,36H38V37H37zM40,36H41V37H40zM42,36H43V37H42zM44,36H45V37H44zM46,36H47V37H46zM3,37H4V38H3zM4,37H5V38H4zM5,37H6V38H5zM6,37H7V38H6zM9,37H10V38H9zM11,37H12V38H11zM12,37H13V38H12zM13,37H14V38H13zM14,37H15V38H14zM16,37H17V38H16zM18,37H19V38H18zM20,37H21V38H20zM22,37H23V38H22zM23,37H24V38H23zM25,37H26V38H25zM27,37H28V38H27zM30,37H31V38H30zM31,37H32V38H31zM32,37H33V38H32zM33,37H34V38H33zM35,37H36V38H35zM36,37H37V38H36zM38,37H39V38H38zM39,37H40V38H39zM41,37H42V38H41zM43,37H44V38H43zM45,37H46V38H45zM46,37H47V38H46zM2,38H3V39H2zM5,38H6V39H5zM6,38H7V39H6zM8,38H9V39H8zM9,38H10V39H9zM16,38H17V39H16zM17,38H18V39H17zM19,38H20V39H19zM20,38H21V39H20zM21,38H22V39H21zM22,38H23V39H22zM23,38H24V39H23zM24,38H25V39H24zM25,38H26V39H25zM26,38H27V39H26zM29,38H30V39H29zM30,38H31V39H30zM32,38H33V39H32zM33,38H34V39H33zM34,38H35V39H34zM38,38H39V39H38zM39,38H40V39H39zM40,38H41V39H40zM41,38H42V39H41zM42,38H43V39H42zM43,38H44V39H43zM44,38H45V39H44zM10,39H11V40H10zM15,39H16V40H15zM16,39H17V40H16zM18,39H19V40H18zM20,39H21V40H20zM21,39H22V40H21zM22,39H23V40H22zM26,39H27V40H26zM27,39H28V40H27zM29,39H30V40H29zM30,39H31V40H30zM36,39H37V40H36zM37,39H38V40H37zM38,39H39V40H38zM42,39H43V40H42zM46,39H47V40H46zM2,40H3V41H2zM3,40H4V41H3zM4,40H5V41H4zM5,40H6V41H5zM6,40H7V41H6zM7,40H8V41H7zM8,40H9V41H8zM10,40H11V41H10zM13,40H14V41H13zM17,40H18V41H17zM18,40H19V41H18zM21,40H22V41H21zM22,40H23V41H22zM24,40H25V41H24zM26,40H27V41H26zM27,40H28V41H27zM30,40H31V41H30zM31,40H32V41H31zM33,40H34V41H33zM38,40H39V41H38zM40,40H41V41H40zM42,40H43V41H42zM43,40H44V41H43zM45,40H46V41H45zM2,41H3V42H2zM8,41H9V42H8zM12,41H13V42H12zM15,41H16V42H15zM16,41H17V42H16zM17,41H18V42H17zM18,41H19V42H18zM19,41H20V42H19zM20,41H21V42H20zM21,41H22V42H21zM22,41H23V42H22zM26,41H27V42H26zM27,41H28V42H27zM28,41H29V42H28zM29,41H30V42H29zM30,41H31V42H30zM31,41H32V42H31zM32,41H33V42H32zM33,41H34V42H33zM35,41H36V42H35zM37,41H38V42H37zM38,41H39V42H38zM42,41H43V42H42zM2,42H3V43H2zM4,42H5V43H4zM5,42H6V43H5zM6,42H7V43H6zM8,42H9V43H8zM11,42H12V43H11zM12,42H13V43H12zM14,42H15V43H14zM16,42H17V43H16zM18,42H19V43H18zM19,42H20V43H19zM20,42H21V43H20zM21,42H22V43H21zM22,42H23V43H22zM23,42H24V43H23zM24,42H25V43H24zM25,42H26V43H25zM26,42H27V43H26zM27,42H28V43H27zM29,42H30V43H29zM31,42H32V43H31zM34,42H35V43H34zM38,42H39V43H38zM39,42H40V43H39zM40,42H41V43H40zM41,42H42V43H41zM42,42H43V43H42zM44,42H45V43H44zM46,42H47V43H46zM2,43H3V44H2zM4,43H5V44H4zM5,43H6V44H5zM6,43H7V44H6zM8,43H9V44H8zM10,43H11V44H10zM11,43H12V44H11zM15,43H16V44H15zM16,43H17V44H16zM20,43H21V44H20zM25,43H26V44H25zM28,43H29V44H28zM31,43H32V44H31zM33,43H34V44H33zM35,43H36V44H35zM38,43H39V44H38zM40,43H41V44H40zM41,43H42V44H41zM46,43H47V44H46zM2,44H3V45H2zM4,44H5V45H4zM5,44H6V45H5zM6,44H7V45H6zM8,44H9V45H8zM14,44H15V45H14zM17,44H18V45H17zM18,44H19V45H18zM20,44H21V45H20zM22,44H23V45H22zM23,44H24V45H23zM26,44H27V45H26zM28,44H29V45H28zM30,44H31V45H30zM32,44H33V45H32zM36,44H37V45H36zM37,44H38V45H37zM38,44H39V45H38zM39,44H40V45H39zM40,44H41V45H40zM41,44H42V45H41zM42,44H43V45H42zM44,44H45V45H44zM2,45H3V46H2zM8,45H9V46H8zM10,45H11V46H10zM12,45H13V46H12zM16,45H17V46H16zM17,45H18V46H17zM20,45H21V46H20zM21,45H22V46H21zM22,45H23V46H22zM23,45H24V46H23zM24,45H25V46H24zM27,45H28V46H27zM29,45H30V46H29zM30,45H31V46H30zM31,45H32V46H31zM32,45H33V46H32zM34,45H35V46H34zM35,45H36V46H35zM36,45H37V46H36zM39,45H40V46H39zM2,46H3V47H2zM3,46H4V47H3zM4,46H5V47H4zM5,46H6V47H5zM6,46H7V47H6zM7,46H8V47H7zM8,46H9V47H8zM10,46H11V47H10zM11,46H12V47H11zM13,46H14V47H13zM14,46H15V47H14zM15,46H16V47H15zM20,46H21V47H20zM21,46H22V47H21zM23,46H24V47H23zM24,46H25V47H24zM26,46H27V47H26zM27,46H28V47H27zM29,46H30V47H29zM30,46H31V47H30zM32,46H33V47H32zM33,46H34V47H33zM35,46H36V47H35zM36,46H37V47H36zM37,46H38V47H37zM38,46H39V47H38zM39,46H40V47H39zM42,46H43V47H42zM45,46H46V47H45z" id="qr-path" fill="#0A0E14" fill-opacity="1" fill-rule="nonzero" stroke="none"/></svg>